<svg width="75" height="75" viewBox="0 0 75 75" fill="none" xmlns="http://www.w3.org/2000/svg">
<g id="No Company Photo Icon">
<rect id="Rectangle 1287" width="75" height="75" rx="7.5" fill="#F1F5F9"/>
<g id="Group 910">
<path id="Vector" d="M55.2578 58.7538V48.7188" stroke="#8E9CB2" stroke-width="3.37501" stroke-miterlimit="10" stroke-linecap="round" stroke-linejoin="round"/>
<path id="Vector_2" d="M29.3125 58.5V50.2891" stroke="#8E9CB2" stroke-width="3.37501" stroke-miterlimit="10" stroke-linecap="round" stroke-linejoin="round"/>
<path id="Vector_3" d="M13 58.7266H62.5" stroke="#182952" stroke-width="3.37501" stroke-miterlimit="10" stroke-linecap="round" stroke-linejoin="round"/>
<path id="Vector_4" d="M55.3016 33.7344C52.5566 33.7344 50.3516 35.9394 50.3516 38.6844V43.792C50.3516 46.537 52.5566 48.742 55.3016 48.742C58.0466 48.742 60.2516 46.537 60.2516 43.792V38.6844C60.2516 35.9394 58.0466 33.7344 55.3016 33.7344Z" stroke="#182952" stroke-width="3.37501" stroke-miterlimit="10" stroke-linecap="round" stroke-linejoin="round"/>
<path id="Vector_5" d="M15.4766 58.7279V22.7951C15.4766 18.2726 17.7267 16 22.2042 16H36.2215C40.699 16 42.9265 18.2726 42.9265 22.7951V58.7279" stroke="#182952" stroke-width="3.37501" stroke-miterlimit="10" stroke-linecap="round" stroke-linejoin="round"/>
<path id="Vector_6" d="M23.7969 27.7891H34.9344" stroke="#8E9CB2" stroke-width="3.37501" stroke-miterlimit="10" stroke-linecap="round" stroke-linejoin="round"/>
<path id="Vector_7" d="M23.7969 36.2266H34.9344" stroke="#8E9CB2" stroke-width="3.37501" stroke-miterlimit="10" stroke-linecap="round" stroke-linejoin="round"/>
</g>
</g>
</svg>
