<svg width="74" height="75" viewBox="0 0 74 75" fill="none" xmlns="http://www.w3.org/2000/svg">
<g id="Add Profile Photo Icon">
<rect id="Rectangle 1287" width="74" height="75" rx="7.5" fill="#F1F5F9"/>
<g id="Add Profile Photo">
<g id="Group">
<path id="Vector" d="M51.5558 54.4062H42.6758" stroke="#182952" stroke-width="3.37497" stroke-linecap="round" stroke-linejoin="round"/>
<path id="Vector_2" d="M47.1162 58.9061V49.9062" stroke="#182952" stroke-width="3.37497" stroke-linecap="round" stroke-linejoin="round"/>
</g>
<path id="Vector_3" d="M37.4875 34.9884C37.2655 34.9659 36.9991 34.9659 36.7549 34.9884C31.4713 34.8084 27.2755 30.421 27.2755 25.0211C27.2533 19.5087 31.6711 15.0312 37.1101 15.0312C42.5491 15.0312 46.9669 19.5087 46.9669 25.0211C46.9669 30.421 42.7489 34.8084 37.4875 34.9884Z" stroke="#8E9CB2" stroke-width="3.37497" stroke-linecap="round" stroke-linejoin="round"/>
<path id="Vector_4" d="M37.1037 59.6047C33.0633 59.6047 29.045 58.5697 25.9814 56.4997C20.609 52.8548 20.609 46.9149 25.9814 43.2925C32.0864 39.1525 42.0987 39.1525 48.2037 43.2925" stroke="#8E9CB2" stroke-width="3.37497" stroke-linecap="round" stroke-linejoin="round"/>
</g>
</g>
</svg>
