<svg width="75" height="75" viewBox="0 0 75 75" fill="none" xmlns="http://www.w3.org/2000/svg">
<g id="Team No Photo Icon">
<rect id="Rectangle 1287" width="75" height="75" rx="7.5" fill="#F1F5F9"/>
<g id="Group 911">
<path id="Vector" d="M31.3342 34.9577C31.1092 34.9352 30.8392 34.9352 30.5917 34.9577C25.2368 34.7777 20.9844 30.3901 20.9844 24.9901C20.9844 19.4775 25.4393 15 30.9742 15C36.4865 15 40.9639 19.4775 40.9639 24.9901C40.9414 30.3901 36.689 34.7777 31.3342 34.9577Z" stroke="#182952" stroke-width="3.37499" stroke-linecap="round" stroke-linejoin="round"/>
<path id="Vector_2" d="M47.6441 19.5C52.009 19.5 55.5189 23.0325 55.5189 27.3751C55.5189 31.6276 52.144 35.0926 47.9366 35.2501C47.7566 35.2276 47.5541 35.2276 47.3516 35.2501" stroke="#8E9CB2" stroke-width="3.37499" stroke-linecap="round" stroke-linejoin="round"/>
<path id="Vector_3" d="M20.0837 43.26C14.6388 46.9051 14.6388 52.8451 20.0837 56.4676C26.2711 60.6077 36.4184 60.6077 42.6058 56.4676C48.0507 52.8226 48.0507 46.8826 42.6058 43.26C36.4409 39.1425 26.2936 39.1425 20.0837 43.26Z" stroke="#182952" stroke-width="3.37499" stroke-linecap="round" stroke-linejoin="round"/>
<path id="Vector_4" d="M51.9844 55.5001C53.6043 55.1626 55.1343 54.5101 56.3943 53.5426C59.9042 50.9101 59.9042 46.5675 56.3943 43.935C55.1568 42.99 53.6493 42.36 52.0519 42" stroke="#8E9CB2" stroke-width="3.37499" stroke-linecap="round" stroke-linejoin="round"/>
</g>
</g>
</svg>
