<svg width="23" height="24" viewBox="0 0 23 24" fill="none" xmlns="http://www.w3.org/2000/svg">
<path d="M7.89875 23.0037H15.2698M18.9553 7.77026C18.9553 5.94567 18.1788 4.19581 16.7964 2.90562C15.414 1.61544 13.5392 0.890625 11.5843 0.890625C9.62935 0.890625 7.75449 1.61544 6.37215 2.90562C4.98982 4.19581 4.21321 5.94567 4.21321 7.77026C4.21321 11.0703 3.38251 13.4011 2.40418 15.002C1.45663 16.5523 0.982869 17.3277 1.00047 17.529C1.02026 17.7552 1.06491 17.8348 1.24762 17.9697C1.41027 18.0897 2.18326 18.0897 3.72925 18.0897H19.4394C20.9853 18.0897 21.7583 18.0897 21.921 17.9697C22.1036 17.8348 22.1484 17.7552 22.1681 17.529C22.1857 17.3277 21.7119 16.5523 20.7644 15.002C19.7861 13.4011 18.9553 11.0703 18.9553 7.77026Z" stroke="#616161" stroke-width="1.5" stroke-linecap="round" stroke-linejoin="round"/>
</svg>
