<svg width="10" height="10" viewBox="0 0 10 10" fill="none" xmlns="http://www.w3.org/2000/svg">
<path d="M4.0791 0.936524L4.53027 0.485352C4.73535 0.300782 5.04297 0.300782 5.22754 0.485352L9.22656 4.46387C9.41113 4.66895 9.41113 4.97656 9.22656 5.16113L5.22754 9.16016C5.04297 9.34473 4.73535 9.34473 4.53027 9.16016L4.0791 8.70898C3.89453 8.50391 3.89453 8.19629 4.0791 7.99121L6.56055 5.63281H0.674805C0.387695 5.63281 0.182617 5.42773 0.182617 5.14063V4.48438C0.182617 4.21777 0.387695 3.99219 0.674805 3.99219H6.56055L4.0791 1.6543C3.89453 1.44922 3.87402 1.1416 4.0791 0.936524Z" fill="white"/>
</svg>
