<svg width="29" height="18" viewBox="0 0 29 18" fill="none" xmlns="http://www.w3.org/2000/svg">
<path d="M22.8076 2.9375H28.125V14.1875H25.3125C24.5215 14.1875 23.9062 13.5723 23.9062 12.7813H21.3574C21.2695 13.1768 21.0937 13.4844 20.874 13.792L19.7314 15.2422C19.0283 16.0771 17.8857 16.3408 16.9189 15.9453C16.3037 16.6924 15.5566 17 14.7656 17C14.1064 17 13.4912 16.7803 12.9639 16.3408C11.5576 17.2637 9.66797 17.2637 8.30566 16.165L4.61426 12.7813H4.1748C4.1748 13.5723 3.55957 14.1875 2.8125 14.1875H0V2.9375H5.18555L7.25098 0.872072C7.73437 0.388673 8.34961 0.125001 9.00879 0.125001H18.9844C19.6436 0.125001 20.2588 0.432619 20.6982 0.872072L22.8076 2.9375ZM2.10937 12.7813C2.46094 12.7813 2.8125 12.4736 2.8125 12.0781C2.8125 11.6826 2.46094 11.375 2.10937 11.375C1.71387 11.375 1.40625 11.6826 1.40625 12.0781C1.40625 12.4736 1.71387 12.7813 2.10937 12.7813ZM19.248 12.4736C19.3359 12.3418 19.3359 12.1221 19.1602 11.9902L14.4141 8.12305L14.0625 8.47461C12.3047 10.0566 10.2393 8.95801 9.58008 8.25488C8.4375 6.98047 8.48144 5.00293 9.7998 3.81641L11.5137 2.23438H9.00879C8.9209 2.27832 8.83301 2.32227 8.74512 2.36621L6.02051 5.04688H4.21875V10.6719H5.40527L9.71191 14.5391C10.415 15.1104 11.5137 15.0225 12.1289 14.2754L12.7881 13.4404L14.4141 14.8027C14.5459 14.8906 14.9414 15.0225 15.2051 14.7148L16.5234 13.0889L17.5781 13.9678C17.7539 14.0557 17.9736 14.0557 18.0615 13.8799L19.248 12.4736ZM23.9062 10.6719V5.04688H21.9287L19.2041 2.36621C19.1602 2.27832 19.0723 2.23438 18.9844 2.23438L15.293 2.27832C14.8535 2.27832 14.4141 2.41016 14.1064 2.71777L11.2061 5.35449C10.8105 5.75 10.7666 6.40918 11.1621 6.84863C11.5576 7.28809 12.2607 7.24414 12.7002 6.84863L15.1172 4.65137C15.3809 4.3877 15.8643 4.3877 16.1279 4.69531L16.5674 5.17871C16.8311 5.48633 16.8311 5.92578 16.5234 6.18945L15.9961 6.67285L20.5225 10.3643C20.6103 10.4521 20.7422 10.584 20.8301 10.6719H23.9062ZM26.0156 12.7813C26.3672 12.7813 26.7187 12.4736 26.7187 12.0781C26.7187 11.6826 26.3672 11.375 26.0156 11.375C25.6201 11.375 25.3125 11.6826 25.3125 12.0781C25.3125 12.4736 25.6201 12.7813 26.0156 12.7813Z" fill="black"/>
</svg>
