<svg width="27" height="21" viewBox="0 0 27 21" fill="none" xmlns="http://www.w3.org/2000/svg">
<path d="M24.3789 16.3193C25.0381 17.6377 26.0049 18.6924 26.0049 18.6924C26.3125 19 26.3564 19.4395 26.2246 19.791C26.0488 20.1865 25.6973 20.4062 25.3018 20.4062C22.9287 20.4062 21.0391 19.5273 19.7646 18.7363C18.9297 18.9121 18.0508 19 17.1719 19C13.3486 19 10.1406 17.2422 8.73437 14.7373C8.33887 14.6494 7.89941 14.6055 7.50391 14.5176C6.22949 15.3086 4.33984 16.2314 2.01074 16.2314C1.57129 16.2314 1.21973 15.9678 1.04395 15.6162C0.912109 15.2207 1 14.7813 1.26367 14.5176C1.26367 14.4736 2.23047 13.4189 2.93359 12.1006C1.70312 10.8701 1 9.37598 1 7.75C1 3.88281 5.08691 0.718752 10.1406 0.718752C13.9199 0.718752 17.1719 2.52051 18.5342 5.06934C22.9287 5.55274 26.3125 8.45313 26.3125 11.9688C26.3125 13.6387 25.5654 15.1328 24.3789 16.3193ZM7.1084 12.2324L7.9873 12.4521C8.69043 12.6279 9.39355 12.6719 10.1406 12.6719C13.9199 12.6719 17.1719 10.4307 17.1719 7.75C17.1719 5.11328 13.9199 2.82813 10.1406 2.82813C6.31738 2.82813 3.10937 5.11328 3.10937 7.75C3.10937 9.02441 3.8125 9.99121 4.38379 10.5625L5.48242 11.6611L4.82324 13.0234C4.69141 13.2432 4.55957 13.4629 4.47168 13.6826C5.08691 13.4629 5.74609 13.1553 6.36133 12.7158L7.1084 12.2324ZM22.8848 14.7813C23.4561 14.21 24.2031 13.2432 24.2031 11.9688C24.2031 9.81543 22.0498 7.96973 19.2373 7.31055C19.2373 7.48633 19.2812 7.61817 19.2812 7.75C19.2812 11.3096 15.8535 14.2539 11.3711 14.7373C12.6455 16.0117 14.7988 16.8906 17.1719 16.8906C17.875 16.8906 18.6221 16.8467 19.3252 16.6709L20.1602 16.4512L20.9512 16.9346C21.5664 17.3301 22.1816 17.6816 22.8408 17.9014C22.709 17.6816 22.5771 17.4619 22.4893 17.2422L21.7861 15.8799L22.8848 14.7813Z" fill="black"/>
</svg>
