<svg width="13" height="13" viewBox="0 0 13 13" fill="none" xmlns="http://www.w3.org/2000/svg">
<path d="M5.125 6.5L7.875 8.94444M7.875 6.5L5.125 8.94444M1 2.83333H12M9.25 2.83333L9.06396 2.33715C8.88363 1.85632 8.79343 1.6159 8.62623 1.43815C8.47856 1.28119 8.28894 1.1597 8.07472 1.08481C7.8321 1 7.54706 1 6.97685 1H6.02315C5.45294 1 5.1679 1 4.92529 1.08481C4.71107 1.1597 4.52143 1.28119 4.37376 1.43815C4.20653 1.6159 4.11638 1.85632 3.93607 2.33715L3.75 2.83333M10.625 2.83333V9.06667C10.625 10.0935 10.625 10.6068 10.4002 10.999C10.2025 11.344 9.88697 11.6244 9.49887 11.8002C9.05764 12 8.48014 12 7.325 12H5.675C4.51989 12 3.94234 12 3.50115 11.8002C3.11306 11.6244 2.79754 11.344 2.5998 10.999C2.375 10.6068 2.375 10.0935 2.375 9.06667V2.83333" stroke="#C77E90" stroke-width="1.375" stroke-linecap="round" stroke-linejoin="round"/>
</svg>
