<svg width="61" height="87" viewBox="0 0 61 87" fill="none" xmlns="http://www.w3.org/2000/svg">
<path d="M13.5026 57H41.8965L51 36.1875H19.1035M13.5026 57C13.1234 57 12.7502 56.9038 12.4169 56.7201C12.0836 56.5363 11.8008 56.2709 11.5942 55.9479C11.3875 55.6249 11.2635 55.2545 11.2335 54.8704C11.2035 54.4863 11.2685 54.1007 11.4224 53.7486L19.1035 36.1875M13.5026 57H12.2759C11.6723 57 11.0934 56.7564 10.6666 56.3227C10.2398 55.889 10 55.3008 10 54.6875V22.3125C10 21.6992 10.2398 21.111 10.6666 20.6773C11.0934 20.2436 11.6723 20 12.2759 20H24.6635C25.0168 20 25.3653 20.0836 25.6813 20.2441C25.9973 20.4047 26.2722 20.6378 26.4842 20.925L32.6291 29.25H44.1382C44.7418 29.25 45.3207 29.4936 45.7475 29.9273C46.1743 30.361 46.4141 30.9492 46.4141 31.5625V36.1875H19.1035" stroke="#182952" stroke-width="3" stroke-linecap="round" stroke-linejoin="round"/>
</svg>
