<svg width="24" height="19" viewBox="0 0 24 19" fill="none" xmlns="http://www.w3.org/2000/svg">
<path d="M7.83984 13.0049C10.1104 13.0049 11.9414 14.8726 11.9414 17.1431C11.9048 18.0952 11.1357 18.8643 10.1836 18.8643H1.98047C0.991699 18.8643 0.222656 18.0952 0.222656 17.1431C0.186035 14.8726 2.01709 13.0049 4.32422 13.0049C4.39746 13.0049 4.4707 13.0415 4.58057 13.0781C5.05664 13.2246 5.53271 13.2979 6.08203 13.2979C6.59473 13.2979 7.0708 13.2246 7.54687 13.0781C7.65674 13.0415 7.72998 13.0049 7.83984 13.0049ZM6.08203 11.833C4.10449 11.833 2.56641 10.2949 2.56641 8.31738C2.56641 6.37647 4.10449 4.80176 6.08203 4.80176C8.02295 4.80176 9.59766 6.37647 9.59766 8.31738C9.59766 10.2949 8.02295 11.833 6.08203 11.833ZM21.9023 0.114259C22.8545 0.114259 23.6602 0.956545 23.6602 1.94531V13.5542C23.6602 14.543 22.8545 15.3486 21.9023 15.3486H12.9302C12.6738 14.4331 12.1611 13.6274 11.4653 13.0049H14.2852V10.6611H18.9727V13.0049H21.3164V2.45801H8.42578V4.28906C7.72998 3.88623 6.92432 3.62988 6.08203 3.62988V1.94531C6.08203 0.956545 6.85107 0.114259 7.83984 0.114259H21.9023Z" fill="black"/>
</svg>
