<svg width="24" height="19" viewBox="0 0 24 19" fill="none" xmlns="http://www.w3.org/2000/svg">
<path d="M10.3535 10.5566V15.2441H3.9082C3.24902 15.2441 2.73633 14.7314 2.73633 14.0723V8.06641L1.93066 8.76221C1.8208 8.87207 1.71094 8.90869 1.60107 8.90869C1.41797 8.90869 1.30811 8.83545 1.19824 8.72559L0.502441 7.95654C0.429199 7.84668 0.392578 7.73682 0.392578 7.59033C0.392578 7.44385 0.46582 7.33399 0.539062 7.22412L8.30273 0.339357C8.52246 0.156252 8.88867 0.00976729 9.18164 0.00976729C9.43799 0.00976729 9.84082 0.156252 10.0239 0.339357L13.2832 3.23242V1.76758C13.2832 1.47461 13.5395 1.18164 13.8691 1.18164H15.041C15.334 1.18164 15.627 1.47461 15.627 1.76758V5.2832L17.7876 7.22412C17.8608 7.33399 17.9341 7.44385 17.9707 7.59033C17.9341 7.73682 17.8975 7.84668 17.8242 7.95654L17.5679 8.21289H12.5508C11.9282 8.21289 11.3423 8.54248 10.9395 9.01856V7.62695C10.9395 7.33399 10.6465 7.04102 10.3535 7.04102H8.00976C7.68018 7.04102 7.42383 7.33399 7.42383 7.62695V9.9707C7.42383 10.3003 7.68018 10.5566 8.00976 10.5566H10.3535ZM23.4272 16.416C23.647 16.416 23.8301 16.5991 23.8301 16.8188V17.2217C23.7935 18.064 23.0977 18.7598 22.2554 18.7598H11.3057C10.4634 18.7598 9.76758 18.064 9.76758 17.2217V16.8188C9.76758 16.5991 9.91406 16.416 10.1338 16.416H11.5254V10.5566C11.5254 9.93408 11.9648 9.38477 12.5508 9.38477H21.0103C21.5962 9.38477 22.0723 9.93408 22.0723 10.5566V16.416H23.4272ZM20.3145 16.416V11.1426H13.2832V16.416H20.3145Z" fill="black"/>
</svg>
