<svg width="24" height="19" viewBox="0 0 24 19" fill="none" xmlns="http://www.w3.org/2000/svg">
<path d="M18.5566 8.40039C21.4497 8.40039 23.8301 10.7808 23.8301 13.6738C23.8301 16.6035 21.4497 18.9473 18.5566 18.9473C15.627 18.9473 13.2832 16.6035 13.2832 13.6738C13.2832 10.7808 15.627 8.40039 18.5566 8.40039ZM20.9004 13.9302V13.4541C20.9004 13.271 20.7173 13.0879 20.5342 13.0879H19.1426V11.1104C19.1426 10.9272 18.9595 10.7441 18.7764 10.7441H18.3003C18.1172 10.7441 17.9707 10.9272 17.9707 11.1104V13.9302C17.9707 14.1133 18.1172 14.2598 18.3003 14.2598H20.5342C20.7173 14.2598 20.9004 14.1133 20.9004 13.9302ZM12.1113 13.6738C12.1113 15.8711 13.1733 17.812 14.8579 18.9473H2.15039C1.16162 18.9473 0.392578 18.1782 0.392578 17.1895V15.688C0.392578 12.978 2.58984 10.7441 5.2998 10.7441H5.92236C6.72803 11.147 7.64355 11.3301 8.5957 11.3301C9.54785 11.3301 10.4268 11.147 11.2324 10.7441H11.855C12.1846 10.7441 12.4775 10.7808 12.7705 10.854C12.3311 11.6963 12.1113 12.6851 12.1113 13.6738ZM8.5957 9.57227C5.9956 9.57227 3.9082 7.48486 3.9082 4.88477C3.9082 2.32129 5.9956 0.197267 8.5957 0.197267C11.1592 0.197267 13.2832 2.32129 13.2832 4.88477C13.2832 7.48486 11.1592 9.57227 8.5957 9.57227Z" fill="black"/>
</svg>
