<svg width="20" height="11" viewBox="0 0 20 11" fill="none" xmlns="http://www.w3.org/2000/svg">
<path d="M0.886719 1H14.0844" stroke="#8E9CB2" stroke-width="1.49679" stroke-linecap="round"/>
<path d="M15.4449 9.99876C15.4434 10.2881 15.6768 10.5232 15.9661 10.5239C16.2554 10.5246 16.4912 10.2906 16.4926 10.0012L15.4449 9.99876ZM16.3735 3.17726C16.17 2.97219 15.8383 2.97141 15.6326 3.17551L12.2819 6.50154C12.0763 6.70565 12.0747 7.03734 12.2782 7.24241C12.4818 7.44748 12.8135 7.44826 13.0191 7.24416L15.9975 4.28769L18.9461 7.25814C19.1496 7.46321 19.4813 7.46399 19.6869 7.25989C19.8926 7.05579 19.8942 6.72409 19.6907 6.51902L16.3735 3.17726ZM16.4926 10.0012L16.5251 3.54806L15.4773 3.54558L15.4449 9.99876L16.4926 10.0012Z" fill="#8E9CB2"/>
<path d="M0.886902 6.22656H10.3138" stroke="#8E9CB2" stroke-width="1.49679" stroke-linecap="round"/>
<path d="M0.886902 6.22656H6.54307" stroke="#8E9CB2" stroke-width="1.49679" stroke-linecap="round"/>
</svg>
