<svg width="18" height="21" viewBox="0 0 18 21" fill="none" xmlns="http://www.w3.org/2000/svg">
<path d="M17 6.58639L11 1.32643C10.45 0.834475 9.73796 0.5625 9.00003 0.5625C8.2621 0.5625 7.55006 0.834475 7.00005 1.32643L1.00009 6.58639C0.682458 6.87046 0.428992 7.21894 0.256565 7.60863C0.0841379 7.99831 -0.00329254 8.42026 9.47934e-05 8.84637V17.5863C9.47934e-05 18.382 0.316163 19.145 0.878768 19.7076C1.44137 20.2702 2.20443 20.5863 3.00007 20.5863H15C15.7956 20.5863 16.5587 20.2702 17.1213 19.7076C17.6839 19.145 18 18.382 18 17.5863V8.83637C18.0019 8.41194 17.9138 7.99192 17.7414 7.60406C17.5691 7.21621 17.3163 6.86934 17 6.58639ZM11 18.5863H7.00005V13.5863C7.00005 13.3211 7.1054 13.0668 7.29294 12.8792C7.48047 12.6917 7.73482 12.5863 8.00004 12.5863H10C10.2652 12.5863 10.5196 12.6917 10.7071 12.8792C10.8947 13.0668 11 13.3211 11 13.5863V18.5863ZM16 17.5863C16 17.8515 15.8946 18.1059 15.7071 18.2934C15.5196 18.4809 15.2652 18.5863 15 18.5863H13V13.5863C13 12.7907 12.6839 12.0276 12.1213 11.465C11.5587 10.9024 10.7957 10.5864 10 10.5864H8.00004C7.20439 10.5864 6.44134 10.9024 5.87873 11.465C5.31613 12.0276 5.00006 12.7907 5.00006 13.5863V18.5863H3.00007C2.73486 18.5863 2.48051 18.4809 2.29297 18.2934C2.10544 18.1059 2.00008 17.8515 2.00008 17.5863V8.83637C2.00026 8.69439 2.03067 8.55407 2.0893 8.42475C2.14792 8.29544 2.23341 8.18009 2.34008 8.08638L8.34004 2.83642C8.52252 2.6761 8.75712 2.58768 9.00003 2.58768C9.24294 2.58768 9.47754 2.6761 9.66003 2.83642L15.66 8.08638C15.7667 8.18009 15.8521 8.29544 15.9108 8.42475C15.9694 8.55407 15.9998 8.69439 16 8.83637V17.5863Z" fill="#3C3C3C"/>
</svg>
