<svg width="20" height="20" viewBox="0 0 20 20" fill="none" xmlns="http://www.w3.org/2000/svg">
<path id="Vector" d="M10 19C14.9706 19 19 14.9706 19 10C19 5.02944 14.9706 1 10 1C5.02944 1 1 5.02944 1 10C1 14.9706 5.02944 19 10 19ZM10 19C11.7608 19.0019 13.483 18.4843 14.951 17.512C14.835 16.5451 14.3691 15.6541 13.6412 15.0071C12.9133 14.3601 11.9739 14.0019 11 14H9C8.02615 14.0019 7.08665 14.3601 6.35879 15.0071C5.63092 15.6541 5.16502 16.5451 5.049 17.512C6.51698 18.4843 8.23921 19.0019 10 19ZM13 8C13 9.65685 11.6569 11 10 11C8.34315 11 7 9.65685 7 8C7 6.34314 8.34315 5 10 5C11.6569 5 13 6.34314 13 8Z" stroke="#2F2F38" stroke-width="1.5" stroke-linecap="round" stroke-linejoin="round"/>
</svg>
