<svg width="18" height="19" viewBox="0 0 18 19" fill="none" xmlns="http://www.w3.org/2000/svg">
<path d="M1.5 18.5742C1.1 18.5742 0.75 18.4242 0.45 18.1242C0.15 17.8242 0 17.4742 0 17.0742V2.07422C0 1.67422 0.15 1.32422 0.45 1.02422C0.75 0.724219 1.1 0.574219 1.5 0.574219H16.5C16.9 0.574219 17.25 0.724219 17.55 1.02422C17.85 1.32422 18 1.67422 18 2.07422V17.0742C18 17.4742 17.85 17.8242 17.55 18.1242C17.25 18.4242 16.9 18.5742 16.5 18.5742H1.5ZM1.5 17.0742H16.5V13.6742H12.85C12.4167 14.3409 11.8542 14.8534 11.1625 15.2117C10.4708 15.5701 9.75 15.7492 9 15.7492C8.25 15.7492 7.52917 15.5701 6.8375 15.2117C6.14583 14.8534 5.58333 14.3409 5.15 13.6742H1.5V17.0742ZM9.00615 14.2492C9.68538 14.2492 10.3 14.0534 10.85 13.6617C11.4 13.2701 11.8667 12.7742 12.25 12.1742H16.5V2.07422H1.5V12.1742H5.75C6.13333 12.7742 6.60205 13.2701 7.15615 13.6617C7.71027 14.0534 8.32693 14.2492 9.00615 14.2492Z" fill="#3C3C3C"/>
</svg>
