<svg width="23" height="21" viewBox="0 0 23 21" fill="none" xmlns="http://www.w3.org/2000/svg">
<path d="M20.3906 0.718752C21.5332 0.718752 22.5 1.68555 22.5 2.82813V18.2969C22.5 19.4834 21.5332 20.4062 20.3906 20.4062H2.10937C0.922851 20.4062 0 19.4834 0 18.2969V2.82813C0 1.68555 0.922851 0.718752 2.10937 0.718752H20.3906ZM20.127 18.2969C20.2588 18.2969 20.3906 18.209 20.3906 18.0332V3.0918C20.3906 2.95996 20.2588 2.82813 20.127 2.82813H2.37305C2.19727 2.82813 2.10937 2.95996 2.10937 3.0918V18.0332C2.10937 18.209 2.19727 18.2969 2.37305 18.2969H20.127ZM18.2812 14.2539V15.3086C18.2812 15.6162 18.0176 15.8359 17.7539 15.8359H8.96484C8.65723 15.8359 8.4375 15.6162 8.4375 15.3086V14.2539C8.4375 13.9902 8.65723 13.7266 8.96484 13.7266H17.7539C18.0176 13.7266 18.2812 13.9902 18.2812 14.2539ZM18.2812 10.0352V11.0898C18.2812 11.3975 18.0176 11.6172 17.7539 11.6172H8.96484C8.65723 11.6172 8.4375 11.3975 8.4375 11.0898V10.0352C8.4375 9.77149 8.65723 9.50781 8.96484 9.50781H17.7539C18.0176 9.50781 18.2812 9.77149 18.2812 10.0352ZM18.2812 5.81641V6.87109C18.2812 7.17871 18.0176 7.39844 17.7539 7.39844H8.96484C8.65723 7.39844 8.4375 7.17871 8.4375 6.87109V5.81641C8.4375 5.55274 8.65723 5.28906 8.96484 5.28906H17.7539C18.0176 5.28906 18.2812 5.55274 18.2812 5.81641ZM7.20703 6.34375C7.20703 7.22266 6.45996 7.92578 5.625 7.92578C4.74609 7.92578 4.04297 7.22266 4.04297 6.34375C4.04297 5.50879 4.74609 4.76172 5.625 4.76172C6.45996 4.76172 7.20703 5.50879 7.20703 6.34375ZM7.20703 10.5625C7.20703 11.4414 6.45996 12.1445 5.625 12.1445C4.74609 12.1445 4.04297 11.4414 4.04297 10.5625C4.04297 9.72754 4.74609 8.98047 5.625 8.98047C6.45996 8.98047 7.20703 9.72754 7.20703 10.5625ZM7.20703 14.7813C7.20703 15.6602 6.45996 16.3633 5.625 16.3633C4.74609 16.3633 4.04297 15.6602 4.04297 14.7813C4.04297 13.9463 4.74609 13.1992 5.625 13.1992C6.45996 13.1992 7.20703 13.9463 7.20703 14.7813Z" fill="black"/>
</svg>
