<svg width="17" height="18" viewBox="0 0 17 18" fill="none" xmlns="http://www.w3.org/2000/svg">
<path id="Vector" d="M6.40059 8.76557L10.001 12.2169M10.001 8.76557L6.40059 12.2169M1 3.58852H15.4016M11.8012 3.58852L11.5576 2.88796C11.3215 2.20906 11.2034 1.86961 10.9845 1.61864C10.7912 1.39702 10.5429 1.22548 10.2625 1.11975C9.94481 1 9.57163 1 8.82509 1H7.57647C6.82993 1 6.45675 1 6.13912 1.11975C5.85866 1.22548 5.61037 1.39702 5.41704 1.61864C5.1981 1.86961 5.08007 2.20906 4.84399 2.88796L4.60039 3.58852M13.6014 3.58852V12.3895C13.6014 13.8393 13.6014 14.564 13.307 15.1178C13.0482 15.6049 12.6351 16.0008 12.127 16.249C11.5493 16.5311 10.7932 16.5311 9.2809 16.5311H7.12066C5.60836 16.5311 4.8522 16.5311 4.27458 16.249C3.76649 16.0008 3.3534 15.6049 3.09451 15.1178C2.8002 14.564 2.8002 13.8393 2.8002 12.3895V3.58852" stroke="#C77E90" stroke-width="1.94131" stroke-linecap="round" stroke-linejoin="round"/>
</svg>
