<svg width="18" height="19" viewBox="0 0 18 19" fill="none" xmlns="http://www.w3.org/2000/svg">
<path d="M1.5 18.5742C1.1 18.5742 0.75 18.4392 0.45 18.1692C0.15 17.8992 0 17.5842 0 17.2242V3.27422C0 2.91422 0.15 2.59922 0.45 2.32922C0.75 2.05922 1.1 1.92422 1.5 1.92422H3.125V0.574219H4.75V1.92422H13.25V0.574219H14.875V1.92422H16.5C16.9 1.92422 17.25 2.05922 17.55 2.32922C17.85 2.59922 18 2.91422 18 3.27422V17.2242C18 17.5842 17.85 17.8992 17.55 18.1692C17.25 18.4392 16.9 18.5742 16.5 18.5742H1.5ZM1.5 17.2242H16.5V7.54922H1.5V17.2242ZM1.5 6.19922H16.5V3.27422H1.5V6.19922Z" fill="#3C3C3C"/>
</svg>
