<svg width="27" height="16" viewBox="0 0 27 16" fill="none" xmlns="http://www.w3.org/2000/svg">
<g id="Group 116">
<g id="Sort Icon">
<path id="Line 30" d="M1.73047 2H19.7305" stroke="#8E9CB2" stroke-width="2.11327" stroke-linecap="round"/>
<path id="Line 33" d="M20.2604 15.1154C20.2583 15.5239 20.5878 15.8559 20.9963 15.8568C21.4048 15.8578 21.7376 15.5274 21.7396 15.1189L20.2604 15.1154ZM21.5717 5.48403C21.2843 5.1945 20.816 5.1934 20.5257 5.48157L15.7948 10.1775C15.5045 10.4657 15.5022 10.934 15.7896 11.2235C16.0769 11.513 16.5453 11.5141 16.8356 11.226L21.0408 7.0518L25.2037 11.2456C25.491 11.5352 25.9594 11.5363 26.2497 11.2481C26.54 10.9599 26.5423 10.4916 26.255 10.2021L21.5717 5.48403ZM21.7396 15.1189L21.7857 6.00754L20.3064 6.00406L20.2604 15.1154L21.7396 15.1189Z" fill="#8E9CB2"/>
<path id="Line 34" d="M2 6.5H15" stroke="#8E9CB2" stroke-width="2.11327" stroke-linecap="round"/>
<path id="Line 34_2" d="M2 11H11" stroke="#8E9CB2" stroke-width="2.11327" stroke-linecap="round"/>
</g>
</g>
</svg>
