<svg width="21" height="20" viewBox="0 0 21 20" fill="none" xmlns="http://www.w3.org/2000/svg">
<path d="M7.75 8.875C9.92462 8.875 11.6875 7.11212 11.6875 4.9375C11.6875 2.76288 9.92462 1 7.75 1C5.57538 1 3.8125 2.76288 3.8125 4.9375C3.8125 7.11212 5.57538 8.875 7.75 8.875Z" stroke="#3C3C3C" stroke-width="2" stroke-linecap="round" stroke-linejoin="round"/>
<path d="M5.5 12.25H10C11.1935 12.25 12.3381 12.7241 13.182 13.568C14.0259 14.4119 14.5 15.5565 14.5 16.75V19H1V16.75C1 15.5565 1.47411 14.4119 2.31802 13.568C3.16193 12.7241 4.30653 12.25 5.5 12.25Z" stroke="#3C3C3C" stroke-width="2" stroke-linecap="round" stroke-linejoin="round"/>
<path d="M19.621 6.68359L20.3695 7.43731L16.1232 11.6836L14 9.56575L14.7538 8.81734L16.1232 10.1815L19.621 6.68359Z" fill="#3C3C3C"/>
</svg>
