<svg width="75" height="75" viewBox="0 0 75 75" fill="none" xmlns="http://www.w3.org/2000/svg">
<rect width="75" height="75" rx="7.5" fill="#F1F5F9"/>
<path d="M52.2544 54.4106H43.2544" stroke="#182952" stroke-width="3.37497" stroke-linecap="round" stroke-linejoin="round"/>
<path d="M47.7544 58.9105V49.9106" stroke="#182952" stroke-width="3.37497" stroke-linecap="round" stroke-linejoin="round"/>
<path d="M37.9927 34.9933C37.7677 34.9708 37.4977 34.9708 37.2502 34.9933C31.8952 34.8133 27.6427 30.4259 27.6427 25.026C27.6202 19.5136 32.0977 15.0361 37.6102 15.0361C43.1227 15.0361 47.6002 19.5136 47.6002 25.026C47.6002 30.4259 43.3252 34.8133 37.9927 34.9933Z" stroke="#8E9CB2" stroke-width="3.37497" stroke-linecap="round" stroke-linejoin="round"/>
<path d="M37.6054 59.609C33.5104 59.609 29.4378 58.574 26.3328 56.504C20.8878 52.8591 20.8878 46.9192 26.3328 43.2967C32.5203 39.1568 42.6679 39.1568 48.8554 43.2967" stroke="#8E9CB2" stroke-width="3.37497" stroke-linecap="round" stroke-linejoin="round"/>
</svg>
