<svg width="77" height="77" viewBox="0 0 77 77" fill="none" xmlns="http://www.w3.org/2000/svg">
<path d="M38.4987 0.583984C30.9995 0.583984 23.6687 2.80776 17.4333 6.9741C11.198 11.1404 6.33811 17.0622 3.46828 23.9906C0.59846 30.9189 -0.152417 38.5427 1.31061 45.8978C2.77363 53.2529 6.38484 60.009 11.6876 65.3118C16.9903 70.6145 23.7464 74.2257 31.1015 75.6888C38.4567 77.1518 46.0804 76.4009 53.0088 73.5311C59.9372 70.6613 65.8589 65.8014 70.0253 59.566C74.1916 53.3307 76.4154 45.9999 76.4154 38.5007C76.4043 28.4479 72.406 18.8101 65.2977 11.7017C58.1893 4.59335 48.5515 0.595024 38.4987 0.583984ZM38.4987 19.5423C40.7485 19.5423 42.9477 20.2095 44.8183 21.4594C46.6889 22.7093 48.1469 24.4858 49.0078 26.5643C49.8688 28.6428 50.0941 30.9299 49.6552 33.1365C49.2162 35.343 48.1329 37.3698 46.5421 38.9607C44.9512 40.5515 42.9244 41.6348 40.7179 42.0738C38.5113 42.5127 36.2242 42.2874 34.1457 41.4264C32.0672 40.5655 30.2906 39.1075 29.0407 37.2369C27.7908 35.3663 27.1237 33.1671 27.1237 30.9173C27.1237 27.9005 28.3221 25.0072 30.4554 22.874C32.5886 20.7408 35.4819 19.5423 38.4987 19.5423ZM38.4987 68.834C31.8224 68.8413 25.2923 66.8787 19.7262 63.192C20.1661 59.5258 21.9326 56.1473 24.6924 53.6941C27.4523 51.241 31.0145 49.8827 34.7071 49.8757H42.2904C45.9829 49.8827 49.5452 51.241 52.305 53.6941C55.0648 56.1473 56.8313 59.5258 57.2713 63.192C51.7052 66.8787 45.1751 68.8413 38.4987 68.834Z" fill="#B3B3B3"/>
</svg>
