<svg xmlns="http://www.w3.org/2000/svg" width="17" height="14" viewBox="0 0 17 14" fill="none">
  <path d="M16.2996 0H0.699609C0.367734 0 0.0996094 0.268125 0.0996094 0.6V12.6C0.0996094 12.9319 0.367734 13.2 0.699609 13.2H16.2996C16.6315 13.2 16.8996 12.9319 16.8996 12.6V0.6C16.8996 0.268125 16.6315 0 16.2996 0ZM15.5496 2.0775V11.85H1.44961V2.0775L0.932109 1.67437L1.66898 0.7275L2.47148 1.35188H14.5296L15.3321 0.7275L16.069 1.67437L15.5496 2.0775ZM14.5296 1.35L8.49961 6.0375L2.46961 1.35L1.66711 0.725625L0.930234 1.6725L1.44773 2.07563L7.85273 7.05562C8.03693 7.19873 8.26354 7.27641 8.4968 7.27641C8.73005 7.27641 8.95666 7.19873 9.14086 7.05562L15.5496 2.0775L16.0671 1.67437L15.3302 0.7275L14.5296 1.35Z" fill="black"/>
</svg>