<svg xmlns="http://www.w3.org/2000/svg" width="16" height="15" viewBox="0 0 16 15" fill="none">
  <path d="M14.4452 2.37562L12.4484 0.380625C12.2046 0.136875 11.8784 0 11.5334 0C11.1884 0 10.8621 0.135 10.6184 0.380625L8.46773 2.5275C8.22398 2.77125 8.08711 3.09938 8.08711 3.44438C8.08711 3.79125 8.22211 4.11562 8.46773 4.36125L10.1477 6.04312C9.76502 6.93485 9.21512 7.74506 8.52773 8.43C7.83961 9.12187 7.03523 9.6675 6.14273 10.0538L4.46273 8.37187C4.21898 8.12812 3.89273 7.99125 3.54773 7.99125C3.37756 7.99062 3.20898 8.02396 3.05186 8.08932C2.89474 8.15468 2.75225 8.25074 2.63273 8.37187L0.480234 10.5187C0.236484 10.7625 0.0996094 11.0906 0.0996094 11.4356C0.0996094 11.7825 0.234609 12.1069 0.480234 12.3525L2.47523 14.3475C2.89148 14.7637 3.46523 15.0019 4.05398 15.0019C4.17586 15.0019 4.29398 14.9925 4.41398 14.9719C6.89648 14.5631 9.36023 13.2412 11.3496 11.2537C13.3371 9.2625 14.6571 6.79875 15.0696 4.31437C15.1877 3.60938 14.9515 2.88375 14.4452 2.37562ZM13.7402 4.09125C13.3746 6.30188 12.1859 8.50688 10.3952 10.2975C8.60461 12.0881 6.40148 13.2769 4.19086 13.6425C3.91336 13.6894 3.62836 13.5956 3.42586 13.395L1.46648 11.4356L3.54398 9.35625L5.79023 11.6062L5.80711 11.6231L6.21211 11.4731C7.4401 11.0216 8.55523 10.3085 9.48022 9.38321C10.4052 8.4579 11.1179 7.34252 11.569 6.11437L11.719 5.70937L9.45398 3.44625L11.5315 1.36687L13.4909 3.32625C13.6934 3.52875 13.7871 3.81375 13.7402 4.09125Z" fill="black"/>
</svg>