<svg xmlns="http://www.w3.org/2000/svg" width="12" height="10" viewBox="0 0 12 10" fill="none">
  <path d="M11.1297 6.87094L10.2053 6.09448C9.96 5.8887 9.62752 5.77311 9.28085 5.77311C8.93419 5.77311 8.60171 5.8887 8.35644 6.09448L7.89424 6.48271C7.64906 6.68863 7.31654 6.80431 6.96982 6.80431C6.62311 6.80431 6.29059 6.68863 6.04541 6.48271L4.65879 5.31802C4.41364 5.11208 4.27592 4.83278 4.27592 4.54156C4.27592 4.25033 4.41364 3.97104 4.65879 3.7651L5.121 3.37687C5.36599 3.17086 5.5036 2.89159 5.5036 2.60041C5.5036 2.30923 5.36599 2.02995 5.121 1.82395L4.19659 1.04748C4.08329 0.934139 3.94183 0.843003 3.78213 0.780475C3.62243 0.717948 3.44837 0.685547 3.27218 0.685547C3.09598 0.685547 2.92192 0.717948 2.76222 0.780475C2.60252 0.843003 2.46106 0.934139 2.34776 1.04748C-0.0834397 3.0746 1.06415 5.41452 3.49403 7.4544C5.92392 9.49427 8.71036 10.4593 11.1297 8.42608C11.2651 8.33093 11.374 8.21198 11.4487 8.07763C11.5234 7.94328 11.5622 7.7968 11.5622 7.64851C11.5622 7.50023 11.5234 7.35374 11.4487 7.21939C11.374 7.08504 11.2651 6.9661 11.1297 6.87094Z" stroke="#4C42D7" stroke-width="0.75" stroke-linecap="round" stroke-linejoin="round"/>
</svg>